<?xml version="1.0" encoding="UTF-8" standalone="no"?>
<svg xmlns="http://www.w3.org/2000/svg" xmlns:xlink="http://www.w3.org/1999/xlink"  version="1.2" baseProfile="tiny" viewBox ="0 0 1222.000000 907.000000">
<title>pyqtgraph SVG export</title>
<desc>Generated with Qt and pyqtgraph</desc>
<style>
    image {
        image-rendering: crisp-edges;
        image-rendering: -moz-crisp-edges;
        image-rendering: pixelated;
    }
</style>
<rect width="100%" height="100%" style="fill:rgba(255, 255, 255, 1.000000)" />
<defs>
</defs>
<g fill="none" stroke="black" stroke-width="1" fill-rule="evenodd" stroke-linecap="square" stroke-linejoin="bevel" id="PlotItem_1">
    <g fill="none" stroke="black" stroke-width="1" fill-rule="evenodd" stroke-linecap="square" stroke-linejoin="bevel" id="ViewBox_1">
        <g fill="none" stroke="none" font-family="Palantino" font-size="16" font-weight="400" font-style="normal">
            <path vector-effect="non-scaling-stroke" fill-rule="evenodd" d="M26.3438,31.0 L1221.0038000000002,31.0 L1221.0038000000002,866.0 L26.3438,866.0 L26.3438,31.0 "/>
        </g>
        <clipPath id="ViewBox_1_clip">
            <path vector-effect="none" fill-rule="evenodd" d="M26.3438,31.0 L1221.0,31.0 L1221.0,866.0 L26.3438,866.0 L26.3438,31.0 " stroke-width="1.0"/>
        </clipPath>
        <g clip-path="url(#ViewBox_1_clip)">
            <g fill="none" stroke="black" stroke-width="1" fill-rule="evenodd" stroke-linecap="square" stroke-linejoin="bevel" id="ChildGroup_1">
                <g id="PlotDataItem_1">
                    <g fill="none" stroke="black" stroke-width="1" fill-rule="evenodd" stroke-linecap="square" stroke-linejoin="bevel" id="PlotCurveItem_1">
                        <g fill="none" stroke="#3cc83c" stroke-opacity="1" stroke-width="1" stroke-linecap="square" stroke-linejoin="bevel" font-family="Palantino" font-size="16" font-weight="400" font-style="normal">
                            <path vector-effect="non-scaling-stroke" fill-rule="evenodd" d="M58.40097999991849,793.3904750175001 L69.80816000001505,794.5539523617 L81.21533999987878,793.9068123879 L92.62251999997534,793.2327887920001 L104.02969999983907,793.4730231301 L115.43687999993563,794.9960823438 L126.84405999979936,796.7598770550001 L138.25123999989592,797.7392499139 L149.65841999999247,796.0569651994 L161.0655999998562,795.8818099891 L172.47277999995276,796.1998672226 L183.8799599998165,798.3667372798001 L195.28713999991305,797.3172021049 L206.6943200000096,798.0699793208 L218.10149999987334,739.7676721160001 L229.5086799999699,747.6956558530001 L240.91585999983363,772.4573690534 L252.3230399999302,740.028990946 L263.7302199997939,746.995106606 L275.1373999998905,826.2352449921001 L286.54457999998704,827.6627617459001 L297.95175999985076,827.509585955 L309.3589399999473,827.6316898631001 L320.76611999981105,755.296812067 L332.1732999999076,758.311285858 L343.5804800000042,764.163395766 L354.9876599998679,768.7892760135001 L366.39483999996446,779.0497271923 L377.8020199998282,787.1270564305 L389.20919999992475,793.1605502442001 L400.6163799997885,796.7925956044 L412.02355999988504,801.8034235464601 L423.4307399999816,817.4807420132 L434.8379199998453,819.9164840885 L446.2450999999419,821.0677904187 L457.6522799998056,822.9717665735001 L469.0594599999022,826.0721892016 L480.46663999999873,824.053733921 L491.87381999986246,826.8338440983 L503.280999999959,833.3832099201001 L514.6881799998228,835.1235575308001 L526.0953599999193,836.7208599299 L537.5025400000159,836.0271121319 L548.9097199998796,836.8843094885001 L560.3168999999762,834.4913449477001 L571.7240799998399,836.6074905142001 L583.1312599999364,838.3136518944001 L594.5384399998002,836.5539380526001 L605.9456199998967,836.221526182 L617.3527999999933,834.8237210212001 L628.759979999857,829.9768294783 L640.1671599999536,831.8909004153 L651.5743399998173,831.6028411516 L662.9815199999139,829.7897896308001 L674.3887000000104,831.1285653737001 L685.7958799998742,831.421493043 L697.2030599999707,831.6186276727001 L708.6102399998344,830.9667982788001 L720.017419999931,831.1634317491 L731.4245999997947,829.5431476118 L742.8317799998913,830.2757710604001 L754.2389599999879,828.7536425713 L765.6461399998516,829.1813105250001 L777.0533199999481,828.7850008309 L788.4604999998119,833.7798417881 L799.8676799999084,827.1346113325001 L811.274860000005,828.1184588289001 L822.6820399998687,823.979991895 L834.0892199999653,827.9938491238 L845.496399999829,825.9038354403001 L856.9035799999256,824.8992972201 L868.3107599997893,824.663716505 L879.7179399998859,825.1072067769001 L891.1251199999824,824.4532653541 L902.5322999998461,821.3640114212001 L913.9394799999427,823.9328113172 L925.3466599998064,822.1648999395001 L936.753839999903,824.3412920253 L948.1610199999996,822.7115932507 L959.5681999998633,821.4222891000001 L970.9753799999598,821.2312399773 L982.3825599998236,821.410118086 L993.7897399999201,823.3563706159 L1005.1969200000167,823.489929596 L1016.6040999998804,820.0917824872 L1028.011279999977,818.3789986435 L1039.4184599998407,817.6755498314001 L1050.8256399999373,813.6644489793 L1062.232819999801,815.0322203732001 L1073.6399999998976,815.8668297597001 L1085.0471799999941,815.7108259979001 L1096.4543599998578,817.5634691113 L1107.8615399999544,815.7887920817001 L1119.2687199998181,813.5853373883001 L1130.6758999999147,815.2283884812 L1142.0830800000113,812.8702903158 L1153.490259999875,812.7723852473 L1164.8974399999715,812.2737674414001 L1176.3046199998353,812.5480090245001 L1187.7117999999318,810.0734270957 "/>
                        </g>
                    </g>
                </g>
                <g id="PlotDataItem_2">
                    <g fill="none" stroke="black" stroke-width="1" fill-rule="evenodd" stroke-linecap="square" stroke-linejoin="bevel" id="PlotCurveItem_2">
                        <g fill="none" stroke="#2864ff" stroke-opacity="1" stroke-width="1" stroke-linecap="square" stroke-linejoin="bevel" font-family="Palantino" font-size="16" font-weight="400" font-style="normal">
                            <path vector-effect="non-scaling-stroke" fill-rule="evenodd" d="M58.40097999991849,793.1433676362001 L69.80816000001505,797.2871325409001 L81.21533999987878,780.4071890214001 L92.62251999997534,779.8513674497001 L104.02969999983907,780.9533453761001 L115.43687999993563,781.2770943485001 L126.84405999979936,780.1325178731 L138.25123999989592,782.3465685081001 L149.65841999999247,782.8545651542 L161.0655999998562,783.5916632403 L172.47277999995276,784.0493291638 L183.8799599998165,784.6236220391 L195.28713999991305,785.1770810022 L206.6943200000096,785.9773251727 L218.10149999987334,754.911993242 L229.5086799999699,758.701832219 L240.91585999983363,765.3715478910001 L252.3230399999302,754.7705946970001 L263.7302199997939,759.775029277 L275.1373999998905,763.787884187 L286.54457999998704,769.3268410642 L297.95175999985076,772.8106506333 L309.3589399999473,777.7256640575 L320.76611999981105,785.6199269263001 L332.1732999999076,788.8717712874001 L343.5804800000042,790.7538754141001 L354.9876599998679,792.4535217221 L366.39483999996446,793.8740580414001 L377.8020199998282,795.5602088427 L389.20919999992475,796.7111929990001 L400.6163799997885,796.208243744 L412.02355999988504,796.7059308253 L423.4307399999816,802.626992391378 L434.8379199998453,804.75942635432 L446.2450999999419,804.18266347912 L457.6522799998056,802.8027611997692 L469.0594599999022,805.81207945663 L480.46663999999873,805.71689138802 L491.87381999986246,805.53183469986 L503.280999999959,805.72097941684 L514.6881799998228,806.2079524261101 L526.0953599999193,805.32739388205 L537.5025400000159,806.30643740763 L548.9097199998796,806.9613346130001 L560.3168999999762,805.4266592403501 L571.7240799998399,805.37598486559 L583.1312599999364,805.8785868887201 L594.5384399998002,804.97479960647 L605.9456199998967,803.5259406216501 L617.3527999999933,805.0868015729501 L628.759979999857,805.5155971353 L640.1671599999536,805.57403948076 L651.5743399998173,805.30644183942 L662.9815199999139,804.7991396570601 L674.3887000000104,803.5887824307 L685.7958799998742,804.88971705919 L697.2030599999707,805.08472176144 L708.6102399998344,804.02685660137 L720.017419999931,804.8032276858801 L731.4245999997947,803.5706941560701 L742.8317799998913,802.5453692758421 L754.2389599999879,800.47596326687 L765.6461399998516,800.49908103405 L777.0533199999481,800.18199748167 L788.4604999998119,798.1885035189 L799.8676799999084,802.1650315318201 L811.274860000005,801.5495075567401 L822.6820399998687,801.38260357799 L834.0892199999653,801.6136273222601 L845.496399999829,802.601929051813 L856.9035799999256,801.44854899561 L868.3107599997893,801.18820742644 L879.7179399998859,801.6301512636201 L891.1251199999824,801.3201877544301 L902.5322999998461,800.79601797855 L913.9394799999427,801.18659655694 L925.3466599998064,800.89766742371 L936.753839999903,800.17325940956 L948.1610199999996,801.01223604226 L959.5681999998633,801.54569516559 L970.9753799999598,800.78531464565 L982.3825599998236,801.41044656237 L993.7897399999201,799.7387398909201 L1005.1969200000167,799.28911041637 L1016.6040999998804,802.1842581542301 L1028.011279999977,800.57433011796 L1039.4184599998407,801.69619691312 L1050.8256399999373,802.2561172527701 L1062.232819999801,802.707159280886 L1073.6399999998976,802.21860547168 L1085.0471799999941,802.6972252276651 L1096.4543599998578,801.72178825991 L1107.8615399999544,803.3579627299 L1119.2687199998181,803.31587607943 L1130.6758999999147,802.8574824008871 L1142.0830800000113,802.36800824824 L1153.490259999875,801.79394805409 L1164.8974399999715,801.33365462345 L1176.3046199998353,801.90247054245 L1187.7117999999318,800.8156276299301 "/>
                        </g>
                    </g>
                </g>
                <g id="PlotDataItem_3">
                    <g fill="none" stroke="black" stroke-width="1" fill-rule="evenodd" stroke-linecap="square" stroke-linejoin="bevel" id="PlotCurveItem_3">
                        <g fill="none" stroke="#ff82f0" stroke-opacity="1" stroke-width="1" stroke-linecap="square" stroke-linejoin="bevel" font-family="Palantino" font-size="16" font-weight="400" font-style="normal">
                            <path vector-effect="non-scaling-stroke" fill-rule="evenodd" d="M58.40097999991849,99.45205745999999 L69.80816000001505,100.84098494000011 L81.21533999987878,96.79233293000004 L92.62251999997534,92.86539106000009 L104.02969999983907,94.33307216000003 L115.43687999993563,90.85717375000002 L126.84405999979936,92.27115920000006 L138.25123999989592,88.37643472000002 L149.65841999999247,84.82894210999996 L161.0655999998562,82.27660888000014 L172.47277999995276,77.18626126000004 L183.8799599998165,75.50737727000012 L195.28713999991305,76.96431924000001 L206.6943200000096,78.44631918000005 L218.10149999987334,73.89292806000003 L229.5086799999699,75.19952221000005 L240.91585999983363,80.04644955000003 L252.3230399999302,77.37598589000004 L263.7302199997939,78.76849307999998 L275.1373999998905,86.32168118000004 L286.54457999998704,87.71418836999999 L297.95175999985076,89.18544917999998 L309.3589399999473,90.40613029000008 L320.76611999981105,80.59414518000006 L332.1732999999076,78.8830438 L343.5804800000042,73.41324692 L354.9876599998679,68.29426162000004 L366.39483999996446,67.46018919000005 L377.8020199998282,67.01272544000005 L389.20919999992475,68.44460944000002 L400.6163799997885,73.73542082000006 L412.02355999988504,75.26395699 L423.4307399999816,69.92660938000006 L434.8379199998453,69.60443548 L446.2450999999419,71.05779774000007 L457.6522799998056,72.46820348000006 L469.0594599999022,68.24772539000003 L480.46663999999873,69.71540648999996 L491.87381999986246,65.02956610000001 L503.280999999959,70.51010211000005 L514.6881799998228,69.25004419000004 L526.0953599999193,74.41198600999996 L537.5025400000159,73.37387010999998 L548.9097199998796,71.95988465999994 L560.3168999999762,67.83963845000005 L571.7240799998399,67.01630515000011 L583.1312599999364,67.01630515000011 L594.5384399998002,66.94113124000012 L605.9456199998967,66.8337399400001 L617.3527999999933,68.29784132999998 L628.759979999857,67.59263845999999 L640.1671599999536,67.57473991000006 L651.5743399998173,69.08895724000001 L662.9815199999139,65.82426171999998 L674.3887000000104,70.52442095000004 L685.7958799998742,70.08411662000003 L697.2030599999707,69.36101520000011 L708.6102399998344,68.69160943000009 L720.017419999931,68.06873988999996 L731.4245999997947,69.57937751000009 L742.8317799998913,68.9278702900001 L754.2389599999879,70.37049342 L765.6461399998516,71.89902958999994 L777.0533199999481,73.34881214000006 L788.4604999998119,77.79839167 L799.8676799999084,73.64234836000003 L811.274860000005,72.65792811000006 L822.6820399998687,68.8598558000001 L834.0892199999653,68.72024711000006 L845.496399999829,68.53768190000005 L856.9035799999256,68.43029060000003 L868.3107599997893,68.28352249 L879.7179399998859,68.13675437999996 L891.1251199999824,69.68318910000005 L902.5322999998461,66.68697183000006 L913.9394799999427,66.71918921999998 L925.3466599998064,68.17971090000003 L936.753839999903,72.62929043000008 L948.1610199999996,71.94556581999996 L959.5681999998633,68.48398625000004 L970.9753799999598,68.33721814 L982.3825599998236,69.76194271999998 L993.7897399999201,74.15424689000008 L1005.1969200000167,78.1384641200001 L1016.6040999998804,74.15066718000014 L1028.011279999977,78.37114527000006 L1039.4184599998407,74.39050774999998 L1050.8256399999373,70.40987023000002 L1062.232819999801,67.24540659000002 L1073.6399999998976,72.05295711999997 L1085.0471799999941,68.31216017000008 L1096.4543599998578,73.14834838000002 L1107.8615399999544,69.53284128000007 L1119.2687199998181,69.47198621000007 L1130.6758999999147,66.16433416999996 L1142.0830800000113,62.692015470000115 L1153.490259999875,59.11588518000008 L1164.8974399999715,60.63010251000003 L1176.3046199998353,62.09778361000008 L1187.7117999999318,58.68631998000001 "/>
                        </g>
                    </g>
                </g>
            </g>
            <g fill="none" stroke="black" stroke-width="1" fill-rule="evenodd" stroke-linecap="square" stroke-linejoin="bevel" id="LegendItem_1">
                <g fill="none" stroke="none" transform="matrix(1,0,0,1,56.3438,61)" font-family="Palantino" font-size="16" font-weight="400" font-style="normal">
                    <rect vector-effect="non-scaling-stroke" x="0" y="0" width="145.297" height="93"/>
                </g>
                <g fill="none" stroke="black" stroke-width="1" fill-rule="evenodd" stroke-linecap="square" stroke-linejoin="bevel" id="ItemSample_1">
                    <g fill="none" stroke="#3cc83c" stroke-opacity="1" stroke-width="1" stroke-linecap="square" stroke-linejoin="bevel" font-family="Palantino" font-size="16" font-weight="400" font-style="normal">
                        <polyline fill="none" vector-effect="non-scaling-stroke" points="65.3438,81.0 85.3438,81.0"/>
                    </g>
                </g>
                <g fill="none" stroke="black" stroke-width="1" fill-rule="evenodd" stroke-linecap="square" stroke-linejoin="bevel" id="LabelItem_1">
                    <g fill="none" stroke="black" stroke-width="1" fill-rule="evenodd" stroke-linecap="square" stroke-linejoin="bevel" id="QGraphicsTextItem_1">
                        


                        


                        


                        <g fill="none" stroke="#000000" stroke-opacity="1" stroke-width="1" stroke-linecap="square" stroke-linejoin="bevel" transform="matrix(1,0,0,1,90.3438,70)" font-family="Palantino" font-size="16" font-weight="400" font-style="normal">
                            <text fill="#000000" fill-opacity="1" stroke="none" xml:space="preserve" x="4" y="17" font-family="Palantino" font-size="12" font-weight="400" font-style="normal">stabilizer.roll</text>
                        </g>
                        


                        

                    </g>
                </g>
                <g fill="none" stroke="black" stroke-width="1" fill-rule="evenodd" stroke-linecap="square" stroke-linejoin="bevel" id="ItemSample_2">
                    <g fill="none" stroke="#2864ff" stroke-opacity="1" stroke-width="1" stroke-linecap="square" stroke-linejoin="bevel" font-family="Palantino" font-size="16" font-weight="400" font-style="normal">
                        <polyline fill="none" vector-effect="non-scaling-stroke" points="65.3438,106.0 85.3438,106.0"/>
                    </g>
                </g>
                <g fill="none" stroke="black" stroke-width="1" fill-rule="evenodd" stroke-linecap="square" stroke-linejoin="bevel" id="LabelItem_2">
                    <g fill="none" stroke="black" stroke-width="1" fill-rule="evenodd" stroke-linecap="square" stroke-linejoin="bevel" id="QGraphicsTextItem_2">
                        


                        


                        


                        <g fill="none" stroke="#000000" stroke-opacity="1" stroke-width="1" stroke-linecap="square" stroke-linejoin="bevel" transform="matrix(1,0,0,1,90.3438,95)" font-family="Palantino" font-size="16" font-weight="400" font-style="normal">
                            <text fill="#000000" fill-opacity="1" stroke="none" xml:space="preserve" x="4" y="17" font-family="Palantino" font-size="12" font-weight="400" font-style="normal">stabilizer.pitch</text>
                        </g>
                        


                        

                    </g>
                </g>
                <g fill="none" stroke="black" stroke-width="1" fill-rule="evenodd" stroke-linecap="square" stroke-linejoin="bevel" id="ItemSample_3">
                    <g fill="none" stroke="#ff82f0" stroke-opacity="1" stroke-width="1" stroke-linecap="square" stroke-linejoin="bevel" font-family="Palantino" font-size="16" font-weight="400" font-style="normal">
                        <polyline fill="none" vector-effect="non-scaling-stroke" points="65.3438,131.0 85.3438,131.0"/>
                    </g>
                </g>
                <g fill="none" stroke="black" stroke-width="1" fill-rule="evenodd" stroke-linecap="square" stroke-linejoin="bevel" id="LabelItem_3">
                    <g fill="none" stroke="black" stroke-width="1" fill-rule="evenodd" stroke-linecap="square" stroke-linejoin="bevel" id="QGraphicsTextItem_3">
                        


                        


                        


                        <g fill="none" stroke="#000000" stroke-opacity="1" stroke-width="1" stroke-linecap="square" stroke-linejoin="bevel" transform="matrix(1,0,0,1,90.3438,120)" font-family="Palantino" font-size="16" font-weight="400" font-style="normal">
                            <text fill="#000000" fill-opacity="1" stroke="none" xml:space="preserve" x="4" y="17" font-family="Palantino" font-size="12" font-weight="400" font-style="normal">stabilizer.yaw</text>
                        </g>
                        


                        

                    </g>
                </g>
            </g>
            <g fill="none" stroke="black" stroke-width="1" fill-rule="evenodd" stroke-linecap="square" stroke-linejoin="bevel" id="QGraphicsRectItem_1">
                <g fill="none" stroke="none" transform="matrix(1,0,0,1,26.3438,31)" font-family="Palantino" font-size="16" font-weight="400" font-style="normal">
                    <rect vector-effect="non-scaling-stroke" x="0" y="0" width="1194.66" height="835"/>
                </g>
            </g>
        </g>
    </g>
    <g fill="none" stroke="black" stroke-width="1" fill-rule="evenodd" stroke-linecap="square" stroke-linejoin="bevel" id="LabelItem_4">
        <g fill="none" stroke="black" stroke-width="1" fill-rule="evenodd" stroke-linecap="square" stroke-linejoin="bevel" id="QGraphicsTextItem_4">
            


            


            


            <g fill="none" stroke="#000000" stroke-opacity="1" stroke-width="1" stroke-linecap="square" stroke-linejoin="bevel" transform="matrix(1,0,0,1,588.695,3.5)" font-family="Palantino" font-size="16" font-weight="400" font-style="normal">
                <text fill="#000000" fill-opacity="1" stroke="none" xml:space="preserve" x="4" y="18" font-family="Ubuntu" font-size="14.6667" font-weight="400" font-style="normal">stabilizer</text>
            </g>
            


            

        </g>
    </g>
    <g fill="none" stroke="black" stroke-width="1" fill-rule="evenodd" stroke-linecap="square" stroke-linejoin="bevel" id="AxisItem_1">
        <g fill="none" stroke="#000000" stroke-opacity="1" stroke-width="1" stroke-linecap="square" stroke-linejoin="bevel" font-family="Palantino" font-size="16" font-weight="400" font-style="normal">
            <polyline fill="none" vector-effect="non-scaling-stroke" points="26.3438,866.0 1221.0038000000002,866.0"/>
            <polyline fill="none" vector-effect="non-scaling-stroke" points="1077.1038,866.0 1077.1038,861.0"/>
        </g>
        <g fill="none" stroke="#000000" stroke-opacity="0.498039" stroke-width="1" stroke-linecap="square" stroke-linejoin="bevel" font-family="Palantino" font-size="16" font-weight="400" font-style="normal">
            <polyline fill="none" vector-effect="non-scaling-stroke" points="506.74879999999996,866.0 506.74879999999996,862.66667"/>
        </g>
        <g fill="none" stroke="#000000" stroke-opacity="0.333333" stroke-width="1" stroke-linecap="square" stroke-linejoin="bevel" font-family="Palantino" font-size="16" font-weight="400" font-style="normal">
            <polyline fill="none" vector-effect="non-scaling-stroke" points="50.461600000000004,866.0 50.461600000000004,863.5"/>
            <polyline fill="none" vector-effect="non-scaling-stroke" points="164.53379999999999,866.0 164.53379999999999,863.5"/>
            <polyline fill="none" vector-effect="non-scaling-stroke" points="278.6048,866.0 278.6048,863.5"/>
            <polyline fill="none" vector-effect="non-scaling-stroke" points="392.6768,866.0 392.6768,863.5"/>
            <polyline fill="none" vector-effect="non-scaling-stroke" points="620.8198,866.0 620.8198,863.5"/>
            <polyline fill="none" vector-effect="non-scaling-stroke" points="734.8918,866.0 734.8918,863.5"/>
            <polyline fill="none" vector-effect="non-scaling-stroke" points="848.9638,866.0 848.9638,863.5"/>
            <polyline fill="none" vector-effect="non-scaling-stroke" points="963.0348,866.0 963.0348,863.5"/>
            <polyline fill="none" vector-effect="non-scaling-stroke" points="1191.1738,866.0 1191.1738,863.5"/>
        </g>
        <g fill="none" stroke="#000000" stroke-opacity="1" stroke-width="1" stroke-linecap="square" stroke-linejoin="bevel" transform="matrix(1,0,0,1,26.3438,866)" font-family="Palantino" font-size="16" font-weight="400" font-style="normal">
            <text fill="#000000" fill-opacity="1" stroke="none" xml:space="preserve" x="1027.88" y="17" font-family="Palantino" font-size="16" font-weight="400" font-style="normal">1.960</text>
            <text fill="#000000" fill-opacity="1" stroke="none" xml:space="preserve" x="457.516" y="17" font-family="Palantino" font-size="16" font-weight="400" font-style="normal">1.959</text>
            <text fill="#000000" fill-opacity="1" stroke="none" xml:space="preserve" x="110.219" y="17" font-family="Palantino" font-size="16" font-weight="400" font-style="normal">1.9584</text>
            <text fill="#000000" fill-opacity="1" stroke="none" xml:space="preserve" x="224.281" y="17" font-family="Palantino" font-size="16" font-weight="400" font-style="normal">1.9586</text>
            <text fill="#000000" fill-opacity="1" stroke="none" xml:space="preserve" x="338.359" y="17" font-family="Palantino" font-size="16" font-weight="400" font-style="normal">1.9588</text>
            <text fill="#000000" fill-opacity="1" stroke="none" xml:space="preserve" x="566.5" y="17" font-family="Palantino" font-size="16" font-weight="400" font-style="normal">1.9592</text>
            <text fill="#000000" fill-opacity="1" stroke="none" xml:space="preserve" x="680.578" y="17" font-family="Palantino" font-size="16" font-weight="400" font-style="normal">1.9594</text>
            <text fill="#000000" fill-opacity="1" stroke="none" xml:space="preserve" x="794.641" y="17" font-family="Palantino" font-size="16" font-weight="400" font-style="normal">1.9596</text>
            <text fill="#000000" fill-opacity="1" stroke="none" xml:space="preserve" x="908.719" y="17" font-family="Palantino" font-size="16" font-weight="400" font-style="normal">1.9598</text>
            <text fill="#000000" fill-opacity="1" stroke="none" xml:space="preserve" x="1136.86" y="17" font-family="Palantino" font-size="16" font-weight="400" font-style="normal">1.9602</text>
        </g>
        <g fill="none" stroke="black" stroke-width="1" fill-rule="evenodd" stroke-linecap="square" stroke-linejoin="bevel" id="QGraphicsTextItem_5">
            


            


            


            <g fill="none" stroke="#000000" stroke-opacity="1" stroke-width="1" stroke-linecap="square" stroke-linejoin="bevel" transform="matrix(1,0,0,1,579.344,886)" font-family="Palantino" font-size="16" font-weight="400" font-style="normal">
                <text fill="#000000" fill-opacity="1" stroke="none" xml:space="preserve" x="4" y="18" font-family="Ubuntu" font-size="14.6667" font-weight="400" font-style="normal">Time (Mms)</text>
            </g>
            


            

        </g>
    </g>
    <g fill="none" stroke="black" stroke-width="1" fill-rule="evenodd" stroke-linecap="square" stroke-linejoin="bevel" id="AxisItem_2">
        <g fill="none" stroke="#000000" stroke-opacity="1" stroke-width="1" stroke-linecap="square" stroke-linejoin="bevel" font-family="Palantino" font-size="16" font-weight="400" font-style="normal">
            <polyline fill="none" vector-effect="non-scaling-stroke" points="26.3438,31.0 26.3438,866.0"/>
            <polyline fill="none" vector-effect="non-scaling-stroke" points="26.3438,802.772 31.3438,802.772"/>
            <polyline fill="none" vector-effect="non-scaling-stroke" points="26.3438,86.8303 31.3438,86.8303"/>
        </g>
        <g fill="none" stroke="#000000" stroke-opacity="0.498039" stroke-width="1" stroke-linecap="square" stroke-linejoin="bevel" font-family="Palantino" font-size="16" font-weight="400" font-style="normal">
            <polyline fill="none" vector-effect="non-scaling-stroke" points="26.3438,444.801 29.6771,444.801"/>
        </g>
        <g fill="none" stroke="#000000" stroke-opacity="0.333333" stroke-width="1" stroke-linecap="square" stroke-linejoin="bevel" font-family="Palantino" font-size="16" font-weight="400" font-style="normal">
            <polyline fill="none" vector-effect="non-scaling-stroke" points="26.3438,731.178 28.8438,731.178"/>
            <polyline fill="none" vector-effect="non-scaling-stroke" points="26.3438,659.584 28.8438,659.584"/>
            <polyline fill="none" vector-effect="non-scaling-stroke" points="26.3438,587.99 28.8438,587.99"/>
            <polyline fill="none" vector-effect="non-scaling-stroke" points="26.3438,516.395 28.8438,516.395"/>
            <polyline fill="none" vector-effect="non-scaling-stroke" points="26.3438,373.207 28.8438,373.207"/>
            <polyline fill="none" vector-effect="non-scaling-stroke" points="26.3438,301.613 28.8438,301.613"/>
            <polyline fill="none" vector-effect="non-scaling-stroke" points="26.3438,230.019 28.8438,230.019"/>
            <polyline fill="none" vector-effect="non-scaling-stroke" points="26.3438,158.424 28.8438,158.424"/>
        </g>
        <g fill="none" stroke="#000000" stroke-opacity="1" stroke-width="1" stroke-linecap="square" stroke-linejoin="bevel" transform="matrix(1,0,0,1,1,31)" font-family="Palantino" font-size="16" font-weight="400" font-style="normal">
            <text fill="#000000" fill-opacity="1" stroke="none" xml:space="preserve" x="10.1719" y="777.266" font-family="Palantino" font-size="16" font-weight="400" font-style="normal">0</text>
            <text fill="#000000" fill-opacity="1" stroke="none" xml:space="preserve" x="0" y="61.3281" font-family="Palantino" font-size="16" font-weight="400" font-style="normal">20</text>
            <text fill="#000000" fill-opacity="1" stroke="none" xml:space="preserve" x="0" y="419.297" font-family="Palantino" font-size="16" font-weight="400" font-style="normal">10</text>
            <text fill="#000000" fill-opacity="1" stroke="none" xml:space="preserve" x="10.1719" y="705.672" font-family="Palantino" font-size="16" font-weight="400" font-style="normal">2</text>
            <text fill="#000000" fill-opacity="1" stroke="none" xml:space="preserve" x="10.1719" y="634.078" font-family="Palantino" font-size="16" font-weight="400" font-style="normal">4</text>
            <text fill="#000000" fill-opacity="1" stroke="none" xml:space="preserve" x="10.1719" y="562.484" font-family="Palantino" font-size="16" font-weight="400" font-style="normal">6</text>
            <text fill="#000000" fill-opacity="1" stroke="none" xml:space="preserve" x="10.1719" y="490.891" font-family="Palantino" font-size="16" font-weight="400" font-style="normal">8</text>
            <text fill="#000000" fill-opacity="1" stroke="none" xml:space="preserve" x="0" y="347.703" font-family="Palantino" font-size="16" font-weight="400" font-style="normal">12</text>
            <text fill="#000000" fill-opacity="1" stroke="none" xml:space="preserve" x="0" y="276.109" font-family="Palantino" font-size="16" font-weight="400" font-style="normal">14</text>
            <text fill="#000000" fill-opacity="1" stroke="none" xml:space="preserve" x="0" y="204.516" font-family="Palantino" font-size="16" font-weight="400" font-style="normal">16</text>
            <text fill="#000000" fill-opacity="1" stroke="none" xml:space="preserve" x="0" y="132.922" font-family="Palantino" font-size="16" font-weight="400" font-style="normal">18</text>
        </g>
    </g>
</g>

</svg>
